# xmcd
# 
# Track frame offsets:
#     150
#     14525
#     35192
#     55725
#     70067
# 
# Disc length: 1207
# 
# Revision: 2
# Processed by: cddbd v1.5.2PL0 Copyright (c) Steve Scherf et al.
# Submitted via: BonkEnc v1.0
# 
DISCID=4004b505
DTITLE=萬Z(量産型) - 炎のエビフライ〜キング　オブ　バイキング〜
DYEAR=2004
DGENRE=JPop
TTITLE0=炎のエビフライ〜キング　オブ　バイキング〜
TTITLE1=勇み足ブルース〜栗田祥吾に捧ぐ〜
TTITLE2=Labyrinth(Instrument)
TTITLE3=炎のエビフライ　カラオケ
TTITLE4=勇み足ブルース　カラオケ
EXTD=YEAR: 2004
EXTT0=
EXTT1=
EXTT2=
EXTT3=
EXTT4=
PLAYORDER=
